<svg width="24" height="21" viewBox="0 0 24 21" fill="none" xmlns="http://www.w3.org/2000/svg">
<path d="M12.6738 4.34766C13.1414 4.06055 13.4531 3.53965 13.4531 2.95312C13.4531 2.04668 12.7189 1.3125 11.8125 1.3125C10.9061 1.3125 10.1719 2.04668 10.1719 2.95312C10.1719 3.54375 10.4836 4.06055 10.9512 4.34766L8.60098 9.04805C8.22773 9.79453 7.25977 10.0078 6.60762 9.48691L2.95312 6.5625C3.1582 6.2877 3.28125 5.94727 3.28125 5.57812C3.28125 4.67168 2.54707 3.9375 1.64062 3.9375C0.73418 3.9375 0 4.67168 0 5.57812C0 6.48457 0.73418 7.21875 1.64062 7.21875H1.66934L3.54375 17.5301C3.76934 18.777 4.85625 19.6875 6.12773 19.6875H17.4973C18.7646 19.6875 19.8516 18.7811 20.0813 17.5301L21.9557 7.21875H21.9844C22.8908 7.21875 23.625 6.48457 23.625 5.57812C23.625 4.67168 22.8908 3.9375 21.9844 3.9375C21.0779 3.9375 20.3438 4.67168 20.3438 5.57812C20.3438 5.94727 20.4668 6.2877 20.6719 6.5625L17.0174 9.48691C16.3652 10.0078 15.3973 9.79453 15.024 9.04805L12.6738 4.34766Z" fill="#FFAB40"/>
</svg>
